HIERARCHY
ROOT Hips
{
  OFFSET -331.093 83.8371 -317.828
  CHANNELS 6 Xposition Yposition Zposition Zrotation Xrotation Yrotation
  JOINT LeftUpLeg
  {
    OFFSET 8.64259 1.95398 -2.38835
    CHANNELS 3 Zrotation Xrotation Yrotation
    JOINT LeftLeg
    {
      OFFSET 43.7702 0 0
      CHANNELS 3 Zrotation Xrotation Yrotation
      JOINT LeftFoot
      {
        OFFSET 40.6238 0 0
        CHANNELS 3 Zrotation Xrotation Yrotation
        JOINT LeftToeBase
        {
          OFFSET 12.7242 0 0
          CHANNELS 3 Zrotation Xrotation Yrotation
          End Site
          {
            OFFSET 0 0 0
          }
        }
      }
    }
  }
  JOINT RightUpLeg
  {
    OFFSET -8.2249 1.95398 -2.59336
    CHANNELS 3 Zrotation Xrotation Yrotation
    JOINT RightLeg
    {
      OFFSET 43.5653 0 0
      CHANNELS 3 Zrotation Xrotation Yrotation
      JOINT RightFoot
      {
        OFFSET 40.6238 0 0
        CHANNELS 3 Zrotation Xrotation Yrotation
        JOINT RightToeBase
        {
          OFFSET 12.7242 0 0
          CHANNELS 3 Zrotation Xrotation Yrotation
          End Site
          {
            OFFSET 0 0 0
          }
        }
      }
    }
  }
  JOINT Spine
  {
    OFFSET 0.165834 0.87714 6.61349
    CHANNELS 3 Zrotation Xrotation Yrotation
    JOINT Spine1
    {
      OFFSET 7.38963 1.71661e-005 0
      CHANNELS 3 Zrotation Xrotation Yrotation
      JOINT Spine2
      {
        OFFSET 11.9445 1.14441e-005 0
        CHANNELS 3 Zrotation Xrotation Yrotation
        JOINT Spine3
        {
          OFFSET 14.7254 4.19617e-005 0
          CHANNELS 3 Zrotation Xrotation Yrotation
          JOINT Spine4
          {
            OFFSET 10.9679 0 0
            CHANNELS 3 Zrotation Xrotation Yrotation
            JOINT RightShoulder
            {
              OFFSET 2.46616 -1.6653 3.69651
              CHANNELS 3 Zrotation Xrotation Yrotation
              JOINT RightArm
              {
                OFFSET 13.0012 0 0
                CHANNELS 3 Zrotation Xrotation Yrotation
                JOINT RightForeArm
                {
                  OFFSET 28.7848 1.62311e-005 0
                  CHANNELS 3 Zrotation Xrotation Yrotation
                  JOINT RightHand
                  {
                    OFFSET 26.5688 1.62095e-005 0
                    CHANNELS 3 Zrotation Xrotation Yrotation
                    End Site
                    {
                      OFFSET 0 0 0
                    }
                  }
                }
              }
            }
            JOINT LeftShoulder
            {
              OFFSET 2.38034 -1.29275 -3.7523
              CHANNELS 3 Zrotation Xrotation Yrotation
              JOINT LeftArm
              {
                OFFSET 16.3182 6.07031e-005 0
                CHANNELS 3 Zrotation Xrotation Yrotation
                JOINT LeftForeArm
                {
                  OFFSET 27.0901 0 0
                  CHANNELS 3 Zrotation Xrotation Yrotation
                  JOINT LeftHand
                  {
                    OFFSET 24.5451 1.51738e-005 0
                    CHANNELS 3 Zrotation Xrotation Yrotation
                    End Site
                    {
                      OFFSET 0 0 0
                    }
                  }
                }
              }
            }
            JOINT Neck
            {
              OFFSET 5.0226 -0.0266342 0
              CHANNELS 3 Zrotation Xrotation Yrotation
              JOINT Head
              {
                OFFSET 6.69364 2.86102e-005 0
                CHANNELS 3 Zrotation Xrotation Yrotation
                End Site
                {
                  OFFSET 0 0 0
                }
              }
            }
          }
        }
      }
    }
  }
}
MOTION
Frames:	15
Frame Time:	0.0416667
80.4552 97.4111 179.952 79.9133 -39.4492 85.8969 -175.107 34.7426 82.683 -19.7802 0.22062 -5.90282 60.6081 -1.4594 -1.76742 31.8454 5.85261 12.5581 170.589 -5.71079 93.3846 -36.6199 -23.3674 0.252061 47.8941 7.38393 5.65673 42.0077 0.38418 2.59276 2.29112 7.49024 -89.4656 11.8912 4.80742 0.551009 0.229138 4.82702 0.338381 -22.368 4.41917 1.97307 -2.35531 4.41917 1.97306 92.961 -31.2433 -100.154 21.4602 -4.70944 -2.98063 -13.3883 -0.893865 -76.6039 -6.18582 -0.252244 -1.56301 -83.5419 -35.347 86.9731 -37.6565 -1.52548 57.471 9.83342 53.2585 -27.6266 -12.019 -0.582191 1.45676 -13.0059 -12.021 1.13976 9.47447 -13.0698 -10.7526 
85.1345 97.1657 185.268 79.5108 -38.9955 85.0898 -174.51 35.5566 81.21 -29.5335 0.705346 -5.0297 65.7719 2.55789 0.374387 33.3447 5.45605 6.97015 168.722 -2.50377 90.8761 -45.5109 -17.114 0.364229 48.5118 6.45547 4.86799 39.2076 -1.09436 -4.298 2.01249 7.3656 -89.4413 12.1374 4.26471 0.643279 0.47341 4.28889 0.4546 -22.1089 3.87394 1.89704 -2.09625 3.87394 1.89704 92.8019 -33.7349 -99.7601 22.484 -3.9718 -2.06949 -13.4606 -1.13837 -75.9905 -5.85628 -0.162891 -3.5723 -85.5196 -38.5863 84.0471 -39.1419 -2.70709 56.2796 9.2607 55.4806 -26.1946 -18.2601 -1.0004 2.14389 -10.5549 -11.3863 0.850579 8.1463 -12.1464 -8.95363 
89.3572 97.3846 189.713 80.5477 -39.6067 83.8684 -173.957 31.5543 79.8119 -32.0685 -0.995161 -5.14741 69.5659 5.66709 1.31118 34.0022 4.75475 2.8928 168.508 4.05083 87.3124 -57.8867 -11.2408 -1.03903 53.3544 3.75218 2.46089 36.3147 -1.64587 -8.1334 1.77329 7.54482 -89.3361 11.7731 3.83868 0.917135 0.107639 3.87531 0.747051 -22.4623 3.38544 2.02953 -2.44962 3.38543 2.02952 92.2121 -35.3715 -100.41 24.556 -3.25628 -0.0607293 -11.6448 -2.07147 -72.7541 -8.82275 -0.198004 -3.43031 -89.419 -44.4002 78.8228 -41.928 -1.12042 49.9932 10.6878 54.3929 -28.1591 -20.4238 -1.12812 2.13579 -9.14642 -10.7531 1.69449 8.89448 -11.5839 -8.63443 
93.0956 98.2424 193.697 80.9515 -40.1152 83.7437 -174.62 26.6658 79.9566 -30.4129 -2.24049 -4.62547 72.1113 7.99345 1.97207 32.4522 3.32748 2.21127 170.408 12.3128 86.9075 -65.962 -5.85006 -2.09305 58.3546 1.06888 0.410564 33.3198 -1.65399 -9.89906 1.52711 7.62298 -89.4406 11.6198 3.29992 0.772907 -0.0471145 3.33075 0.626757 -22.608 2.91499 1.72964 -2.5954 2.91498 1.72964 92.2073 -36.1575 -100.206 27.8013 -4.58181 2.62807 -10.5224 -1.7555 -68.8748 -12.7945 -0.318292 -2.6145 -90.6793 -46.7118 77.4106 -43.4864 3.36008 40.0892 13.5575 51.9367 -32.0563 -15.8243 -0.884352 2.21974 -9.38535 -9.81643 2.99262 10.8679 -10.8039 -8.05087 
96.8889 99.3195 197.479 80.0675 -37.3568 84.1342 -176.286 22.6517 80.5685 -27.0133 -0.347562 -3.25231 71.4967 9.00455 3.67131 34.2527 4.85565 2.57564 171.337 20.9594 87.7709 -68.5524 -0.707252 -1.76876 62.3553 -0.76385 -0.786187 33.0528 -1.63251 -9.95305 0.988982 7.57985 -89.6284 11.7104 2.14146 0.51676 0.0411453 2.16216 0.421963 -22.5046 1.88713 1.13665 -2.49197 1.88715 1.13666 91.974 -38.0873 -100.109 30.0203 -5.41811 5.90374 -9.91667 -2.37548 -63.8406 -15.1437 -0.347155 -2.76605 -90.4211 -46.3015 77.7103 -43.1667 6.5233 30.5978 18.1594 43.1388 -38.4017 -1.81066 -0.0119994 5.63674 -8.36744 -8.63712 1.48985 11.0858 -9.20803 -4.85108 
100.806 100.824 201.249 81.4131 -34.516 85.9489 -178.125 16.451 81.5143 -22.4081 3.11904 -1.58776 67.6038 7.41912 5.19825 38.7135 8.71592 3.35295 171.655 26.3057 87.9375 -65.4994 -0.202236 -1.35651 63.9647 -1.32252 -1.09265 36.8959 -2.13911 -10.4299 0.511061 7.68999 -89.9172 11.4941 1.05554 0.0571693 -0.176467 1.05699 0.0106563 -22.7147 0.98953 0.371786 -2.70208 0.989532 0.371777 91.5903 -39.8596 -100.319 30.5453 -6.49006 9.70474 -9.27332 -3.76201 -58.1053 -15.9297 -0.372398 -2.70723 -91.9999 -47.0573 75.4753 -39.5979 8.07108 22.4433 20.0888 30.1968 -45.006 11.5341 1.52186 8.79347 -9.12816 -7.97707 2.44767 11.1463 -8.60521 -4.78453 
104.569 101.966 205.32 81.0556 -32.7212 87.1916 -178.695 11.8249 83.3277 -19.0579 2.67138 -0.182761 66.8154 5.15245 1.86571 39.0283 9.35771 4.35537 172.202 31.2035 88.7579 -58.0167 -1.24009 -0.667245 65.0729 -1.77327 -1.28538 38.7521 -2.38609 -10.5966 0.130979 7.59839 -90.1991 11.6764 0.167245 -0.414719 0.0054444 0.148833 -0.421684 -22.5294 0.28413 -0.34529 -2.51676 0.284154 -0.345286 91.5814 -40.323 -100.214 32.2181 -7.62989 12.673 -9.39329 -5.59033 -52.0359 -15.0683 -0.520453 -1.40137 -92.4448 -46.9584 74.7697 -34.6196 7.75841 14.3146 19.7886 18.2442 -52.3064 22.7758 3.01541 9.51674 -9.78874 -7.19631 2.03512 11.0879 -7.6404 -3.38277 
108.309 102.228 209.562 80.4783 -31.951 87.0548 -178.181 7.75516 84.5991 -16.4697 4.05459 -0.046618 67.044 5.09903 1.78977 39.6209 10.8225 6.80532 172.989 35.0925 88.4617 -47.3005 -1.60309 -0.194655 65.3186 -1.94382 -1.30142 40.2351 -2.83897 -11.8787 -0.150443 7.50102 -90.2548 11.8707 -0.418952 -0.462952 0.199756 -0.438915 -0.444072 -22.335 -0.260447 -0.567456 -2.32236 -0.260432 -0.567455 91.7069 -41.1528 -99.7913 33.0215 -9.21162 14.8901 -8.82837 -7.70754 -46.2108 -11.6763 -0.506631 -0.562977 -92.3447 -46.5033 74.799 -28.655 3.69584 6.10547 20.165 10.4128 -61.2847 19.8257 2.33175 7.90838 -10.2184 -6.52155 1.02787 11.2555 -6.8126 -2.44345 
112.167 101.751 214.048 80.7604 -31.3419 86.9451 -177.456 3.89173 85.5799 -16.4757 6.38582 0.0931438 68.5923 5.26712 1.2213 37.9149 11.3281 11.8564 173.496 35.8763 87.9218 -32.2881 -0.879453 0.195145 65.15 -2.27572 -1.39482 41.7988 -3.18086 -12.4997 -0.407119 7.45721 -90.2198 11.9581 -0.912925 -0.339466 0.287438 -0.926974 -0.298965 -22.2493 -0.768696 -0.598156 -2.23666 -0.768697 -0.598157 91.557 -42.2673 -99.7674 33.5894 -10.0587 17.2646 -8.68343 -10.574 -40.2979 -8.99543 -0.426934 -0.546733 -92.2039 -45.9988 74.8793 -22.1265 0.34847 -3.03102 18.8582 6.63447 -66.2998 18.8904 1.86131 6.00907 -10.2899 -5.83185 0.261453 11.0222 -6.05326 -2.18815 
116.225 100.368 218.594 81.2492 -30.5892 85.8269 -176.85 0.372768 85.746 -17.5752 9.1944 -0.0463174 69.4796 6.62929 3.28546 39.154 12.7666 12.4483 173.763 34.8382 86.4683 -14.4696 -1.01844 0.285232 62.8796 -2.20133 -1.26874 48.6371 -4.69728 -14.4022 -0.671559 7.42937 -90.0709 12.016 -1.36855 0.00770674 0.345744 -1.3669 0.0679345 -22.1948 -1.30758 -0.404028 -2.18218 -1.30761 -0.404042 91.1958 -42.9186 -100.21 34.2057 -9.15355 20.6773 -9.6995 -13.3099 -37.2818 -5.21684 -0.324868 -0.0151248 -93.0832 -44.637 73.1254 -15.6852 -3.27169 -11.3261 16.5279 4.31389 -69.2042 18.4774 2.06081 7.28389 -9.96027 -5.09304 -0.331831 10.5493 -5.20528 -1.50944 
120.52 98.5308 223.444 82.7825 -29.84 85.7241 -175.325 -4.72172 87.2904 -17.3217 13.6349 -0.594685 67.0128 6.23075 5.00711 45.4298 18.6131 11.9267 174.482 35.3853 85.742 -6.80196 1.8113 -0.321657 66.4602 -3.45109 -1.8251 44.5103 -2.24788 -7.61538 -0.962147 7.55404 -89.9424 11.7697 -1.88644 0.314107 0.100023 -1.87078 0.396849 -22.446 -1.89359 -0.267569 -2.43337 -1.89359 -0.267584 91.6449 -43.8044 -99.2512 33.859 -9.11481 22.9854 -11.1522 -16.1562 -36.1471 -1.3224 -0.184126 0.626261 -92.3875 -42.3613 73.5521 -11.7869 -7.90921 -17.8499 16.6057 4.19794 -70.7866 18.6382 1.7593 5.58209 -8.58604 -4.35025 -1.25367 9.30037 -4.2929 -0.610486 
125.165 96.4427 228.393 84.0951 -28.2991 86.1278 -173.72 -8.56995 89.804 -19.6483 18.4056 -0.538004 66.2766 5.88842 5.15088 45.5398 21.5141 16.8932 175.144 36.2406 84.8141 -6.71398 0.294842 -1.05755 67.3287 -3.97829 -2.05692 46.8258 -2.93257 -9.27739 -1.40891 7.58766 -89.9628 11.7059 -2.78479 0.366873 0.0377867 -2.76595 0.489165 -22.5207 -2.76623 -0.487694 -2.50806 -2.76621 -0.487689 91.667 -43.3525 -99.3215 33.6348 -8.88854 25.7246 -12.1257 -17.4564 -36.2664 2.80936 0.00872757 1.31349 -91.0017 -40.2342 75.1911 -8.73262 -10.8261 -22.371 15.3999 3.89229 -70.4984 17.7351 1.7238 5.82246 -8.72298 -3.38303 -0.499616 9.3189 -3.3607 -0.35438 
130.549 94.5192 234.019 84.7912 -27.399 86.9135 -172.589 -12.2509 92.5158 -20.9993 20.9431 0.63912 63.4188 4.46729 5.6426 45.7424 25.1473 22.525 175.63 37.95 84.9883 -15.8077 -4.20401 -1.0589 64.7105 -2.51344 -1.3748 50.7867 -5.23715 -14.9205 -1.84814 7.61869 -90.2048 11.6424 -3.77225 -0.0161548 -0.0230845 -3.76928 0.150114 -22.5992 -3.59276 -1.15061 -2.58657 -3.59276 -1.15061 92.1601 -41.6967 -98.8878 32.7294 -9.1873 27.3562 -12.7611 -18.1295 -37.2657 3.61512 0.0497894 1.32467 -90.4331 -39.557 75.9423 -6.61988 -13.2695 -21.7436 12.9841 2.50115 -72.2962 18.3216 1.28055 3.15984 -6.5331 -1.98773 2.07641 7.2849 -2.14208 0.0676516 
136.157 93.5446 240.253 84.8398 -28.2407 89.0433 -170.428 -14.8909 97.2193 -21.682 22.0421 1.61718 56.3508 -1.18885 1.8851 44.9468 31.0747 32.494 175.625 40.1806 87.9736 -28.2574 -2.8793 -0.45455 63.629 -1.17363 -0.744674 49.1143 -3.94761 -11.7314 -1.81255 7.64129 -90.5315 11.585 -3.8545 -0.661055 -0.0803543 -3.87986 -0.490528 -22.6533 -3.47746 -1.79021 -2.6406 -3.47744 -1.79021 92.0991 -42.1106 -98.893 31.1963 -8.98917 28.1394 -11.2955 -16.0066 -36.7849 1.57241 -0.0162676 1.98125 -91.2846 -39.673 74.556 -3.74419 -12.5269 -19.3666 10.8648 1.0127 -73.7675 19.0723 1.43018 3.64827 -6.14061 -1.51794 2.21998 6.99009 -1.57971 1.5047 
141.444 93.1428 245.821 85.3434 -30.1605 91.3681 -169.156 -13.1419 100.654 -29.4415 20.1996 2.1266 47.1962 -7.64779 -2.11444 32.4375 19.164 41.4058 174.982 40.51 91.8142 -38.378 -1.54523 0.243734 66.7935 -2.18908 -1.36015 40.3631 -1.43229 -5.657 -1.60681 7.75226 -90.8225 11.351 -3.58062 -1.27801 -0.315525 -3.6334 -1.11901 -22.8759 -3.03098 -2.29569 -2.86322 -3.03098 -2.2957 91.3437 -42.4447 -100.082 30.334 -8.15582 26.8121 -9.99113 -14.5046 -35.1207 -0.14416 -0.0967265 2.39315 -92.5557 -41.0275 72.8737 -2.73746 -11.5863 -15.4956 13.1664 1.45218 -75.5128 16.1228 1.03397 2.53045 -5.06464 -1.00582 2.38699 5.36238 -1.05021 2.72781 
